<?xml version="1.0" encoding="UTF-8" standalone="no"?>
<!DOCTYPE svg PUBLIC "-//W3C//DTD SVG 1.1//EN" "http://www.w3.org/Graphics/SVG/1.1/DTD/svg11.dtd">
<svg width="100%" height="100%" viewBox="0 0 1080 1080" version="1.1" xmlns="http://www.w3.org/2000/svg" xmlns:xlink="http://www.w3.org/1999/xlink" xml:space="preserve" xmlns:serif="http://www.serif.com/" style="fill-rule:evenodd;clip-rule:evenodd;stroke-linecap:round;stroke-linejoin:round;stroke-miterlimit:1.5;">
    <g id="Layer1">
        <path d="M766.42,612.285C654.38,614.457 555.261,641.179 468.089,690.599C398.533,726.306 321.772,750.175 234.809,757.284C181.793,763.774 132.485,753.211 85.686,731.102C54.218,725.859 42.079,736.925 50.398,765.253L78.856,807.371L185.86,842.66L380.516,777.774C475.378,754.229 570.239,743.545 665.101,743.624L806.255,780.051L983.836,854.043C1004.19,832.391 1006.58,802.654 1002.05,769.806C995.832,722.242 963.205,683.957 910.982,652.557C865.398,622.86 816.977,610.898 766.42,612.285Z" style="fill:rgb(24,110,149);stroke:black;stroke-width:1.96px;"/>
        <path d="M712.911,600.193C633.472,567.523 549.922,555.403 464.265,553.821L247.389,584.778L225.702,758.423C288.824,756.718 358.252,740.301 436.295,703.782C494.541,670.014 557.276,645.223 622.982,626.375L712.911,600.193Z" style="fill:rgb(227,143,75);stroke:black;stroke-width:1.96px;"/>
        <path d="M261.226,268.979L261.226,566.769C379.256,537.235 475.895,530.431 581.782,549.466L621.852,221.624C505.093,201.885 392.556,220.722 261.226,268.979Z" style="fill:rgb(24,110,149);stroke:rgb(24,110,149);stroke-width:34px;"/>
        <path d="M222.566,760.316C229.528,703.708 235.471,699.757 244.726,581.264C244.726,582.64 247.814,340.908 241.966,271.879C239.857,246.982 351.608,216.696 411.184,205.983C475.156,194.478 553.338,194.514 625.802,202.852C741.842,223.472 820.295,249.126 847.209,281.682L806.122,614.942C851.929,624.644 893.144,637.455 926.02,661.084C953.521,683.482 977.075,702.559 994.625,736.899C1008.37,765.362 1017.06,800.456 998.893,844.876C990.779,863.925 971.974,881.031 941.976,896.101C918.803,906.25 894.377,909.3 868.219,902.539C849.094,870.694 831.739,840.208 810.625,813.337C788.548,793.884 762.275,773.552 726.272,758.077C688.832,746.181 637.515,743.311 583.164,748.324C526.247,751.468 470.449,755.232 413.532,768.646C366.688,775.199 311.951,794.916 257.149,822.358L165.336,867.173C137.18,870.453 101.845,849.141 71.699,820.59C54.87,804.094 48.368,782.738 48.449,758.285C49.253,744.28 57.825,732.779 74.545,727.727C93.255,728.751 121.624,741.046 145.65,751.64C178.249,759.658 199.915,763.242 222.566,760.316Z" style="fill:none;stroke:black;stroke-width:34px;"/>
        <path d="M244.353,588.352C289.602,576.253 332.807,563.397 374.078,559.256C459.453,551.377 531.084,551.488 592.587,562.508C668.223,577.775 738.814,595.059 804.503,614.304" style="fill:none;stroke:black;stroke-width:34px;"/>
        <path d="M592.587,562.508C599.577,527.645 608.424,487.076 613.86,433.557C623.704,359.862 628.932,283.883 634.113,205.525L834.461,284.936L798.034,601.849L592.587,562.508Z" style="stroke:black;stroke-width:34px;"/>
        <path d="M218.87,760.652C258.436,760.855 309.734,748.512 345.321,736.779C378.616,726.572 411.495,714.285 443.796,699.105C495.129,676.212 540.797,657.093 582.183,640.169C654.063,614.789 734.513,608.05 810.373,614.501" style="fill:none;stroke:black;stroke-width:34px;"/>
        <path d="M83.629,779.986C99.307,793.995 114.852,802.058 131.039,807.409C162.426,814.493 187.626,814.414 209.336,810.293C239.207,806.042 274.777,795.415 299.556,785.561L231.085,831.858L164.643,861.582L111.022,849.343L61.482,797.471L66.688,746.182C61.555,763.038 74.82,771.915 83.629,779.986Z" style="stroke:black;stroke-width:1.96px;"/>
        <path d="M736.439,745.314C749.104,749.405 771.208,756.57 782.204,757.115C812.431,756.959 825.145,739.623 832.535,731.541C838.496,723.758 841.835,714.489 841.121,702.951C839.363,693.484 833.75,685.951 828.028,678.363C859.319,686.296 890.383,699.661 914.58,715.523C940.728,734.328 958.475,754.279 968.248,781.011C972.254,794.999 974.928,809.456 973.509,823.444C976.617,827.484 979.256,826.158 982.365,822.271C989.468,810.205 988.961,782.768 989.179,767.365C997.683,789.365 999.213,825.297 989.985,847.923L952.683,886.39L889.738,900.961L864.093,876.482L818.05,808.873L755.687,760.499L736.439,745.314Z" style="stroke:black;stroke-width:1.96px;"/>
    </g>
</svg>
